HIERARCHY
ROOT Hips
{
	OFFSET -351.999878 -572.954773 89.312325
	CHANNELS 6 Xposition Yposition Zposition Zrotation Yrotation Xrotation
	JOINT Spine
	{
		OFFSET 0.000000 2.080078 8.814247
		CHANNELS 6 Xposition Yposition Zposition Zrotation Yrotation Xrotation
		JOINT Spine1
		{
			OFFSET 0.000000 0.000000 8.844139
			CHANNELS 6 Xposition Yposition Zposition Zrotation Yrotation Xrotation
			JOINT Spine2
			{
				OFFSET 0.000000 0.000000 11.682266
				CHANNELS 6 Xposition Yposition Zposition Zrotation Yrotation Xrotation
				JOINT Spine3
				{
					OFFSET 0.000000 0.000000 11.746696
					CHANNELS 6 Xposition Yposition Zposition Zrotation Yrotation Xrotation
					JOINT Neck
					{
						OFFSET 0.000000 0.000000 17.658264
						CHANNELS 6 Xposition Yposition Zposition Zrotation Yrotation Xrotation
						JOINT Neck1
						{
							OFFSET 0.000000 0.000000 5.101517
							CHANNELS 6 Xposition Yposition Zposition Zrotation Yrotation Xrotation
							JOINT Head
							{
								OFFSET 0.000000 0.000000 5.101517
								CHANNELS 6 Xposition Yposition Zposition Zrotation Yrotation Xrotation
								JOINT HeadEnd
								{
									OFFSET 0.000000 0.000000 11.655090
									CHANNELS 6 Xposition Yposition Zposition Zrotation Yrotation Xrotation
									End Site
									{
										OFFSET 0.000000 0.000000 0.100006
									}
								}
							}
						}
					}
					JOINT RightShoulder
					{
						OFFSET -2.625397 0.000000 11.175217
						CHANNELS 6 Xposition Yposition Zposition Zrotation Yrotation Xrotation
						JOINT RightArm
						{
							OFFSET 0.000000 0.000000 10.434708
							CHANNELS 6 Xposition Yposition Zposition Zrotation Yrotation Xrotation
							JOINT RightForeArm
							{
								OFFSET 0.000000 0.000000 29.628418
								CHANNELS 6 Xposition Yposition Zposition Zrotation Yrotation Xrotation
								JOINT RightHand
								{
									OFFSET 0.000000 0.000000 22.857605
									CHANNELS 6 Xposition Yposition Zposition Zrotation Yrotation Xrotation
									JOINT RightHandThumb1
									{
										OFFSET -2.867310 -2.944275 3.959564
										CHANNELS 6 Xposition Yposition Zposition Zrotation Yrotation Xrotation
										JOINT RightHandThumb2
										{
											OFFSET 0.000000 0.000000 3.350403
											CHANNELS 6 Xposition Yposition Zposition Zrotation Yrotation Xrotation
											JOINT RightHandThumb3
											{
												OFFSET 0.000000 0.000000 3.756516
												CHANNELS 6 Xposition Yposition Zposition Zrotation Yrotation Xrotation
												JOINT RightHandThumb4
												{
													OFFSET 0.000000 0.000000 3.147339
													CHANNELS 6 Xposition Yposition Zposition Zrotation Yrotation Xrotation
													End Site
													{
														OFFSET 0.000000 0.000000 0.100006
													}
												}
											}
										}
									}
									JOINT RightHandIndex1
									{
										OFFSET -0.086761 -2.345276 10.030899
										CHANNELS 6 Xposition Yposition Zposition Zrotation Yrotation Xrotation
										JOINT RightHandIndex2
										{
											OFFSET 0.000000 0.000000 4.061096
											CHANNELS 6 Xposition Yposition Zposition Zrotation Yrotation Xrotation
											JOINT RightHandIndex3
											{
												OFFSET 0.000000 0.000000 3.248871
												CHANNELS 6 Xposition Yposition Zposition Zrotation Yrotation Xrotation
												JOINT RightHandIndex4
												{
													OFFSET 0.000000 0.000000 2.639709
													CHANNELS 6 Xposition Yposition Zposition Zrotation Yrotation Xrotation
													End Site
													{
														OFFSET 0.000000 0.000000 0.100006
													}
												}
											}
										}
									}
									JOINT RightHandMiddle1
									{
										OFFSET 0.104095 -0.006775 9.502945
										CHANNELS 6 Xposition Yposition Zposition Zrotation Yrotation Xrotation
										JOINT RightHandMiddle2
										{
											OFFSET 0.000000 0.000000 4.568726
											CHANNELS 6 Xposition Yposition Zposition Zrotation Yrotation Xrotation
											JOINT RightHandMiddle3
											{
												OFFSET 0.000000 0.000000 3.654984
												CHANNELS 6 Xposition Yposition Zposition Zrotation Yrotation Xrotation
												JOINT RightHandMiddle4
												{
													OFFSET 0.000000 0.000000 2.741241
													CHANNELS 6 Xposition Yposition Zposition Zrotation Yrotation Xrotation
													End Site
													{
														OFFSET 0.000000 0.000000 0.100006
													}
												}
											}
										}
									}
									JOINT RightHandRing1
									{
										OFFSET 0.086761 2.267456 8.921707
										CHANNELS 6 Xposition Yposition Zposition Zrotation Yrotation Xrotation
										JOINT RightHandRing2
										{
											OFFSET 0.000000 0.000000 4.061096
											CHANNELS 6 Xposition Yposition Zposition Zrotation Yrotation Xrotation
											JOINT RightHandRing3
											{
												OFFSET 0.000000 0.000000 3.654984
												CHANNELS 6 Xposition Yposition Zposition Zrotation Yrotation Xrotation
												JOINT RightHandRing4
												{
													OFFSET 0.000000 0.000000 2.741241
													CHANNELS 6 Xposition Yposition Zposition Zrotation Yrotation Xrotation
													End Site
													{
														OFFSET 0.000000 0.000000 0.100006
													}
												}
											}
										}
									}
									JOINT RightHandPinky1
									{
										OFFSET -0.173492 4.467224 7.976990
										CHANNELS 6 Xposition Yposition Zposition Zrotation Yrotation Xrotation
										JOINT RightHandPinky2
										{
											OFFSET 0.000000 0.000000 3.350403
											CHANNELS 6 Xposition Yposition Zposition Zrotation Yrotation Xrotation
											JOINT RightHandPinky3
											{
												OFFSET 0.000000 0.000000 2.842758
												CHANNELS 6 Xposition Yposition Zposition Zrotation Yrotation Xrotation
												JOINT RightHandPinky4
												{
													OFFSET 0.000000 0.000000 2.639709
													CHANNELS 6 Xposition Yposition Zposition Zrotation Yrotation Xrotation
													End Site
													{
														OFFSET 0.000000 0.000000 0.100006
													}
												}
											}
										}
									}
									JOINT RightForeArmEnd
									{
										OFFSET 0.000000 0.000000 0.000000
										CHANNELS 6 Xposition Yposition Zposition Zrotation Yrotation Xrotation
										End Site
										{
											OFFSET 0.000000 0.000000 0.100006
										}
									}
								}
								JOINT RightArmEnd
								{
									OFFSET 0.000000 0.000000 0.000000
									CHANNELS 6 Xposition Yposition Zposition Zrotation Yrotation Xrotation
									End Site
									{
										OFFSET 0.000000 0.000000 0.100006
									}
								}
							}
						}
					}
					JOINT LeftShoulder
					{
						OFFSET 2.625397 0.000000 11.175217
						CHANNELS 6 Xposition Yposition Zposition Zrotation Yrotation Xrotation
						JOINT LeftArm
						{
							OFFSET 0.000000 0.000000 10.813629
							CHANNELS 6 Xposition Yposition Zposition Zrotation Yrotation Xrotation
							JOINT LeftForeArm
							{
								OFFSET 0.000000 0.000000 28.724777
								CHANNELS 6 Xposition Yposition Zposition Zrotation Yrotation Xrotation
								JOINT LeftHand
								{
									OFFSET 0.644379 0.328857 25.716171
									CHANNELS 6 Xposition Yposition Zposition Zrotation Yrotation Xrotation
									JOINT LeftHandThumb1
									{
										OFFSET 2.867310 -2.944275 3.959564
										CHANNELS 6 Xposition Yposition Zposition Zrotation Yrotation Xrotation
										JOINT LeftHandThumb2
										{
											OFFSET 0.000000 0.000000 3.350403
											CHANNELS 6 Xposition Yposition Zposition Zrotation Yrotation Xrotation
											JOINT LeftHandThumb3
											{
												OFFSET 0.000000 0.000000 3.756516
												CHANNELS 6 Xposition Yposition Zposition Zrotation Yrotation Xrotation
												JOINT LeftHandThumb4
												{
													OFFSET 0.000000 0.000000 3.100006
													CHANNELS 6 Xposition Yposition Zposition Zrotation Yrotation Xrotation
													End Site
													{
														OFFSET 0.000000 0.000000 0.100006
													}
												}
											}
										}
									}
									JOINT LeftHandIndex1
									{
										OFFSET 0.086761 -2.345276 10.030899
										CHANNELS 6 Xposition Yposition Zposition Zrotation Yrotation Xrotation
										JOINT LeftHandIndex2
										{
											OFFSET 0.000000 0.000000 4.061096
											CHANNELS 6 Xposition Yposition Zposition Zrotation Yrotation Xrotation
											JOINT LeftHandIndex3
											{
												OFFSET 0.000000 0.000000 3.248871
												CHANNELS 6 Xposition Yposition Zposition Zrotation Yrotation Xrotation
												JOINT LeftHandIndex4
												{
													OFFSET 0.000000 0.000000 2.639709
													CHANNELS 6 Xposition Yposition Zposition Zrotation Yrotation Xrotation
													End Site
													{
														OFFSET 0.000000 0.000000 0.100006
													}
												}
											}
										}
									}
									JOINT LeftHandMiddle1
									{
										OFFSET -0.104095 -0.006775 9.502945
										CHANNELS 6 Xposition Yposition Zposition Zrotation Yrotation Xrotation
										JOINT LeftHandMiddle2
										{
											OFFSET 0.000000 0.000000 4.568726
											CHANNELS 6 Xposition Yposition Zposition Zrotation Yrotation Xrotation
											JOINT LeftHandMiddle3
											{
												OFFSET 0.000000 0.000000 3.654984
												CHANNELS 6 Xposition Yposition Zposition Zrotation Yrotation Xrotation
												JOINT LeftHandMiddle4
												{
													OFFSET 0.000000 0.000000 2.741241
													CHANNELS 6 Xposition Yposition Zposition Zrotation Yrotation Xrotation
													End Site
													{
														OFFSET 0.000000 0.000000 0.100006
													}
												}
											}
										}
									}
									JOINT LeftHandRing1
									{
										OFFSET -0.086761 2.267456 8.921707
										CHANNELS 6 Xposition Yposition Zposition Zrotation Yrotation Xrotation
										JOINT LeftHandRing2
										{
											OFFSET 0.000000 0.000000 4.061096
											CHANNELS 6 Xposition Yposition Zposition Zrotation Yrotation Xrotation
											JOINT LeftHandRing3
											{
												OFFSET 0.000000 0.000000 3.654984
												CHANNELS 6 Xposition Yposition Zposition Zrotation Yrotation Xrotation
												JOINT LeftHandRing4
												{
													OFFSET 0.000000 0.000000 2.741241
													CHANNELS 6 Xposition Yposition Zposition Zrotation Yrotation Xrotation
													End Site
													{
														OFFSET 0.000000 0.000000 0.100006
													}
												}
											}
										}
									}
									JOINT LeftHandPinky1
									{
										OFFSET 0.173492 4.467224 7.976990
										CHANNELS 6 Xposition Yposition Zposition Zrotation Yrotation Xrotation
										JOINT LeftHandPinky2
										{
											OFFSET 0.000000 0.000000 3.350403
											CHANNELS 6 Xposition Yposition Zposition Zrotation Yrotation Xrotation
											JOINT LeftHandPinky3
											{
												OFFSET 0.000000 0.000000 2.842758
												CHANNELS 6 Xposition Yposition Zposition Zrotation Yrotation Xrotation
												JOINT LeftHandPinky4
												{
													OFFSET 0.000000 0.000000 2.639709
													CHANNELS 6 Xposition Yposition Zposition Zrotation Yrotation Xrotation
													End Site
													{
														OFFSET 0.000000 0.000000 0.100006
													}
												}
											}
										}
									}
									JOINT LeftForeArmEnd
									{
										OFFSET 0.000000 0.000000 0.000000
										CHANNELS 6 Xposition Yposition Zposition Zrotation Yrotation Xrotation
										End Site
										{
											OFFSET 0.000000 0.000000 0.100006
										}
									}
								}
								JOINT LeftArmEnd
								{
									OFFSET 0.000000 0.000000 0.000000
									CHANNELS 6 Xposition Yposition Zposition Zrotation Yrotation Xrotation
									End Site
									{
										OFFSET 0.000000 0.000000 0.100006
									}
								}
							}
						}
					}
				}
			}
		}
	}
	JOINT RightUpLeg
	{
		OFFSET -11.289948 0.000000 0.000000
		CHANNELS 6 Xposition Yposition Zposition Zrotation Yrotation Xrotation
		JOINT RightLeg
		{
			OFFSET 0.000000 0.000000 -38.200329
			CHANNELS 6 Xposition Yposition Zposition Zrotation Yrotation Xrotation
			JOINT RightFoot
			{
				OFFSET 0.000000 0.000000 -39.900856
				CHANNELS 6 Xposition Yposition Zposition Zrotation Yrotation Xrotation
				JOINT RightToeBase
				{
					OFFSET 0.000000 -15.261658 0.000002
					CHANNELS 6 Xposition Yposition Zposition Zrotation Yrotation Xrotation
					JOINT RightToeBaseEnd
					{
						OFFSET 0.000000 -7.370728 0.000000
						CHANNELS 6 Xposition Yposition Zposition Zrotation Yrotation Xrotation
						End Site
						{
							OFFSET 0.000000 0.000000 0.100000
						}
					}
				}
				JOINT RightLegEnd
				{
					OFFSET 0.000000 0.000000 0.000000
					CHANNELS 6 Xposition Yposition Zposition Zrotation Yrotation Xrotation
					End Site
					{
						OFFSET 0.000000 0.000000 0.100000
					}
				}
			}
			JOINT RightUpLegEnd
			{
				OFFSET 0.000000 0.000000 0.000000
				CHANNELS 6 Xposition Yposition Zposition Zrotation Yrotation Xrotation
				End Site
				{
					OFFSET 0.000000 0.000000 0.099998
				}
			}
		}
	}
	JOINT LeftUpLeg
	{
		OFFSET 11.315674 0.000000 0.000000
		CHANNELS 6 Xposition Yposition Zposition Zrotation Yrotation Xrotation
		JOINT LeftLeg
		{
			OFFSET 0.000000 0.000000 -38.200329
			CHANNELS 6 Xposition Yposition Zposition Zrotation Yrotation Xrotation
			JOINT LeftFoot
			{
				OFFSET 0.000000 0.000000 -39.900856
				CHANNELS 6 Xposition Yposition Zposition Zrotation Yrotation Xrotation
				JOINT LeftToeBase
				{
					OFFSET 0.000000 -15.261658 0.000002
					CHANNELS 6 Xposition Yposition Zposition Zrotation Yrotation Xrotation
					JOINT LeftToeBaseEnd
					{
						OFFSET 0.000000 -7.539978 0.000000
						CHANNELS 6 Xposition Yposition Zposition Zrotation Yrotation Xrotation
						End Site
						{
							OFFSET 0.000000 0.000000 0.100000
						}
					}
				}
				JOINT LeftLegEnd
				{
					OFFSET 0.000000 0.000000 0.000000
					CHANNELS 6 Xposition Yposition Zposition Zrotation Yrotation Xrotation
					End Site
					{
						OFFSET 0.000000 0.000000 0.100000
					}
				}
			}
			JOINT LeftUpLegEnd
			{
				OFFSET 0.000000 0.000000 0.000000
				CHANNELS 6 Xposition Yposition Zposition Zrotation Yrotation Xrotation
				End Site
				{
					OFFSET 0.000000 0.000000 0.099998
				}
			}
		}
	}
}
MOTION
Frames: 2
Frame Time: 0.016667
-24.227936 -14.166321 89.377762 7.419261 -0.322668 -0.770513 0.000012 2.080095 8.814255 0.090764 -0.190436 1.285521 0.000010 -0.000010 8.844143 0.185287 0.819527 -0.133810 -0.000011 0.000010 11.682273 -1.165261 0.149456 2.480314 0.000008 -0.000026 11.746688 -0.263624 0.145553 2.237607 0.000016 0.000013 17.658253 -0.360164 -4.378291 3.945501 0.000014 -0.000012 5.101525 1.880545 -1.007993 -3.811454 -0.000003 0.000026 5.101486 -0.605360 0.532422 -12.736658 -0.000008 -0.000001 11.655071 0.000000 -0.000000 0.000000 -2.625381 -0.000008 11.175231 12.767496 -77.398706 0.062857 0.000031 0.000008 10.434685 -38.472222 -34.505969 33.060281 -0.000004 -0.000031 29.628437 12.343146 1.117158 111.781688 -0.000020 0.000046 22.857597 19.894512 -5.231325 16.651018 -2.867321 -2.944275 3.959534 32.995712 -27.956886 36.609978 -0.000008 0.000015 3.350414 -36.138760 9.738741 -60.733748 -0.000008 -0.000023 3.756531 -24.194246 11.009181 -41.576710 -0.000012 -0.000003 3.147338 0.000001 -0.000003 -0.000002 -0.086773 -2.345263 10.030922 56.332515 -112.127582 -57.090963 -0.000023 0.000021 4.061050 -15.357151 -69.873218 22.547409 0.000031 0.000004 3.248848 -15.857109 -69.873245 22.547337 0.000011 0.000010 2.639719 -0.000000 -0.000002 -0.000004 0.104099 -0.006761 9.502918 57.371506 -105.961554 -53.723556 -0.000002 -0.000006 4.568737 -4.865236 -68.952010 7.801463 0.000004 -0.000027 3.654999 -5.335624 -68.952986 7.777126 0.000044 0.000013 2.741231 -0.000001 -0.000002 -0.000000 0.086731 2.267429 8.921730 25.181050 -102.702993 -17.048856 -0.000008 0.000027 4.061127 5.900832 -70.235375 -9.800853 -0.000008 0.000018 3.654976 6.900809 -70.235382 -9.800380 0.000008 -0.000015 2.741229 0.000002 -0.000000 -0.000000 -0.173500 4.467241 7.976982 -13.717413 -101.864724 26.086034 0.000000 -0.000015 3.350403 15.450989 -66.389514 -26.403946 0.000000 0.000027 2.842758 17.450964 -66.389507 -26.403910 -0.000004 -0.000000 2.639724 0.000001 -0.000001 -0.000001 -0.000031 0.000013 -0.000015 -0.000003 0.000002 -0.000000 -0.000003 -0.000011 -0.000015 0.000002 -0.000001 -0.000000 2.625397 -0.000017 11.175226 -9.879958 72.743994 -0.110756 -0.000015 0.000026 10.813629 65.114038 43.705598 49.603200 0.000000 0.000061 28.724775 -12.408223 0.489269 117.711480 0.644371 0.328878 25.716152 10.106733 -22.266620 0.150321 2.867301 -2.944351 3.959549 -33.448061 29.128247 35.046517 0.000038 0.000000 3.350487 38.531040 -8.984215 -64.663668 -0.000046 -0.000031 3.756500 25.945208 -11.070266 -44.369240 -0.000036 0.000019 3.100009 -0.000002 0.000001 0.000000 0.086784 -2.345294 10.030926 -6.172341 102.841359 -17.991902 -0.000019 -0.000008 4.061157 -17.221704 71.296192 -24.527269 0.000023 -0.000004 3.248894 -17.721552 71.296233 -24.527109 -0.000066 0.000029 2.639732 -0.000004 -0.000001 -0.000001 -0.104084 -0.006783 9.502979 -28.325414 103.368575 -32.906120 0.000027 -0.000050 4.568703 -5.805095 71.141160 -8.818750 0.000029 -0.000055 3.655027 -6.329035 71.140375 -8.843658 -0.000031 0.000006 2.741269 -0.000000 -0.000000 -0.000001 -0.086765 2.267448 8.921776 -39.304785 112.489234 -35.581549 0.000027 0.000014 4.061115 9.093308 74.936574 13.146260 -0.000008 -0.000009 3.655052 10.091519 74.936341 13.146377 -0.000033 -0.000005 2.741238 0.000001 0.000000 -0.000001 0.173477 4.467148 7.976990 -54.768138 117.691099 -42.100005 0.000008 0.000023 3.350471 25.949540 72.330330 37.604474 -0.000031 0.000015 2.842823 27.949532 72.330324 37.604249 -0.000060 -0.000007 2.639702 0.000000 0.000001 0.000001 -0.000018 -0.000016 -0.000001 0.000002 0.000003 -0.000001 -0.000015 -0.000024 -0.000000 0.000003 0.000002 0.000001 -11.289916 -0.000011 0.000004 -13.376522 -0.220375 3.904220 0.000026 0.000029 -38.200329 -0.689690 0.061030 5.568264 -0.000005 -0.000076 -39.900871 -8.247912 1.898541 20.656864 -0.000004 -15.261701 0.000034 0.923154 0.812680 -19.564735 0.000006 -7.370664 0.000001 -0.000000 -0.000000 -0.000001 0.000013 0.000002 -0.000000 -0.000000 -0.000001 -0.000001 0.000031 0.000061 0.000002 0.000000 -0.000000 -0.000001 11.315676 0.000012 0.000012 -7.123734 -0.994456 0.690696 -0.000024 0.000065 -38.200317 0.703460 -0.099829 8.039149 0.000006 -0.000028 -39.900845 1.824863 -1.727071 20.833477 0.000032 -15.261661 0.000015 -0.486388 -0.755968 -21.741032 -0.000002 -7.539978 -0.000000 -0.000000 0.000000 0.000000 0.000003 -0.000000 -0.000000 0.000000 -0.000000 0.000000 -0.000000 0.000062 0.000001 -0.000000 0.000000 -0.000000 
-24.256409 -14.161255 89.389656 7.735842 -0.351220 -0.693424 -0.000002 2.080088 8.814250 0.085076 -0.211323 1.269531 -0.000009 0.000002 8.844148 0.173242 0.822395 -0.108832 -0.000009 -0.000017 11.682273 -1.302730 0.133740 2.447581 -0.000000 0.000018 11.746674 -0.323779 0.167532 2.206023 0.000004 0.000010 17.658272 -0.464720 -4.390237 4.010798 0.000004 -0.000001 5.101510 1.799572 -0.977896 -3.757629 -0.000012 -0.000029 5.101538 -0.614880 0.537571 -12.681598 -0.000005 -0.000003 11.655039 0.000000 -0.000000 -0.000001 -2.625389 0.000002 11.175245 12.787683 -77.292395 0.061981 0.000031 -0.000013 10.434692 -38.637431 -33.782519 32.864521 -0.000011 0.000038 29.628433 12.488498 1.092555 111.682418 -0.000026 0.000084 22.857609 19.993963 -5.495404 16.612171 -2.867284 -2.944244 3.959534 32.995664 -27.956869 36.610091 0.000031 0.000015 3.350399 -36.138804 9.738592 -60.733953 0.000008 -0.000023 3.756500 -24.194108 11.009222 -41.576622 -0.000040 -0.000009 3.147330 0.000001 0.000001 0.000000 -0.086749 -2.345268 10.030869 56.618112 -112.049458 -57.620623 -0.000019 -0.000015 4.061119 -15.226022 -69.763976 22.413662 -0.000019 0.000015 3.248894 -15.726067 -69.763948 22.412946 0.000006 -0.000022 2.639739 0.000002 0.000000 0.000000 0.104111 -0.006788 9.502960 57.932551 -105.858773 -54.516589 0.000038 0.000012 4.568733 -4.830524 -68.812885 7.764712 -0.000013 -0.000015 3.654972 -5.307769 -68.813589 7.747030 -0.000015 -0.000006 2.741233 0.000000 -0.000002 -0.000002 0.086800 2.267485 8.921719 25.664091 -102.478055 -17.685544 -0.000015 0.000014 4.061100 5.818865 -70.073629 -9.715972 -0.000010 0.000013 3.654987 6.818864 -70.073602 -9.714945 -0.000006 0.000026 2.741232 -0.000003 0.000001 -0.000000 -0.173462 4.467241 7.976990 -13.994796 -101.595075 26.376355 0.000015 -0.000008 3.350410 15.244321 -66.221409 -26.178230 -0.000023 -0.000015 2.842751 17.244336 -66.221402 -26.178273 -0.000005 -0.000002 2.639709 -0.000000 -0.000005 -0.000001 0.000026 0.000001 -0.000021 -0.000001 0.000000 0.000001 -0.000013 -0.000007 -0.000006 0.000001 -0.000000 -0.000001 2.625389 0.000021 11.175207 -10.007037 72.550577 -0.109355 -0.000015 -0.000002 10.813622 64.716343 43.521638 49.478812 -0.000023 0.000008 28.724792 -12.409664 0.492378 117.631458 0.644363 0.328800 25.716162 10.132633 -22.246225 0.025483 2.867243 -2.944336 3.959549 -33.448048 29.128243 35.046551 -0.000031 0.000000 3.350433 38.531040 -8.984200 -64.663696 -0.000069 -0.000031 3.756531 25.945203 -11.070256 -44.369244 -0.000023 0.000019 3.100033 -0.000003 0.000002 -0.000001 0.086777 -2.345274 10.030926 -6.099064 103.003959 -18.063928 0.000023 0.000000 4.061188 -17.386761 71.411431 -24.697100 0.000011 -0.000008 3.248932 -17.886718 71.411397 -24.697300 -0.000031 -0.000012 2.639724 0.000001 -0.000003 -0.000003 -0.104130 -0.006752 9.502983 -28.001008 103.512726 -32.658150 0.000036 -0.000048 4.568739 -5.840834 71.256857 -8.856090 -0.000002 -0.000036 3.655041 -6.377577 71.255682 -8.893561 -0.000045 0.000001 2.741262 0.000000 -0.000001 0.000000 -0.086742 2.267428 8.921722 -39.049926 112.608427 -35.294091 0.000008 -0.000026 4.061131 9.183433 75.044395 13.237970 0.000004 -0.000006 3.655052 10.183546 75.044429 13.240163 -0.000040 0.000003 2.741256 -0.000002 0.000000 0.000002 0.173470 4.467201 7.976967 -54.548179 117.757256 -41.748749 -0.000023 0.000027 3.350426 26.162048 72.413563 37.826172 -0.000008 0.000008 2.842793 28.162098 72.413563 37.826202 -0.000023 -0.000014 2.639705 0.000001 -0.000000 0.000000 -0.000025 -0.000013 -0.000007 0.000002 -0.000002 -0.000000 -0.000015 0.000003 -0.000000 0.000000 0.000000 0.000000 -11.289919 -0.000010 0.000005 -13.650703 -0.221626 3.860225 0.000016 0.000107 -38.200329 -0.688619 0.061163 5.562382 -0.000017 -0.000074 -39.900852 -8.292630 1.897447 20.672578 -0.000010 -15.261692 0.000025 0.917329 0.810224 -19.624843 -0.000015 -7.370663 0.000000 -0.000001 -0.000000 -0.000001 -0.000012 0.000002 0.000002 -0.000000 -0.000001 0.000001 0.000030 0.000065 0.000003 -0.000001 -0.000000 0.000000 11.315685 0.000003 -0.000005 -7.252612 -1.010969 0.539328 -0.000021 0.000049 -38.200336 0.704313 -0.100196 8.052776 0.000008 -0.000030 -39.900845 1.631538 -1.772609 20.949254 0.000039 -15.261662 0.000020 -0.480931 -0.739817 -21.782972 -0.000003 -7.539978 0.000000 -0.000000 0.000000 -0.000000 0.000000 -0.000002 -0.000000 0.000000 -0.000000 -0.000000 0.000001 -0.000000 -0.000007 -0.000000 -0.000000 0.000000 
